<svg id="Layer_1" data-name="Layer 1" xmlns="http://www.w3.org/2000/svg" xmlns:xlink="http://www.w3.org/1999/xlink" viewBox="0 0 359.55 93.1"><defs><style>.cls-1{fill:none;}.cls-2{clip-path:url(#clip-path);}.cls-3{fill:#f27321;}.cls-4{fill:#222f64;}.cls-5{fill:#23366f;}</style><clipPath id="clip-path" transform="translate(-432.15 -340.71)"><rect class="cls-1" width="1190.55" height="841.89"/></clipPath></defs><title>Homeland Logo Guidline</title><g class="cls-2"><polygon class="cls-3" points="25.39 82.97 31.31 82.97 31.31 84.29 29 84.29 29 92.66 27.69 92.66 27.69 84.29 25.39 84.29 25.39 82.97"/><polygon class="cls-3" points="32.85 82.97 34.17 82.97 34.17 86.69 38.8 86.69 38.8 82.97 40.11 82.97 40.11 92.66 38.8 92.66 38.8 88 34.17 88 34.17 92.66 32.85 92.66 32.85 82.97"/><polygon class="cls-3" points="42.1 82.97 47.47 82.97 47.47 84.29 43.41 84.29 43.41 86.71 47.47 86.71 47.47 88.02 43.41 88.02 43.41 91.35 47.47 91.35 47.47 92.66 42.1 92.66 42.1 82.97"/><polygon class="cls-3" points="53.25 82.58 60.41 89.94 60.41 82.97 61.73 82.97 61.73 93.1 54.57 85.77 54.57 92.66 53.25 92.66 53.25 82.58"/><path class="cls-3" d="M495.46,428.46a4.77,4.77,0,0,1,1.58-3.59,5.33,5.33,0,0,1,3.8-1.5,5.2,5.2,0,0,1,3.73,1.51,4.81,4.81,0,0,1,1.57,3.58,5,5,0,0,1-1.55,3.71,5.48,5.48,0,0,1-7.58,0,5,5,0,0,1-1.56-3.7m9.28.06a3.58,3.58,0,0,0-1.16-2.7,4,4,0,0,0-2.84-1.1,3.8,3.8,0,0,0-2.75,1.12,3.62,3.62,0,0,0-1.14,2.68,3.54,3.54,0,0,0,1.17,2.69,4.06,4.06,0,0,0,2.88,1.1,3.72,3.72,0,0,0,2.7-1.12,3.61,3.61,0,0,0,1.14-2.66" transform="translate(-432.15 -340.71)"/><path class="cls-3" d="M506.88,432.47a1,1,0,0,1,.3-.72,1,1,0,1,1-.3.72" transform="translate(-432.15 -340.71)"/><polygon class="cls-3" points="84.25 83 86.77 83 86.77 92.65 85.46 92.65 85.46 84.28 83.81 84.28 84.25 83"/><path class="cls-3" d="M528,423.67h2.1a4,4,0,0,1,2.55.78,2.44,2.44,0,0,1,1,2,2.57,2.57,0,0,1-.64,1.72,3.56,3.56,0,0,1-2,1l2.81,4.15h-1.52l-2.69-4h-.3v4H528Zm1.32,1.17v3.38q2.93.06,2.93-1.69a1.48,1.48,0,0,0-.34-1A1.72,1.72,0,0,0,531,425a7.46,7.46,0,0,0-1.67-.14" transform="translate(-432.15 -340.71)"/><polygon class="cls-3" points="103.37 82.97 108.74 82.97 108.74 84.29 104.68 84.29 104.68 86.71 108.74 86.71 108.74 88.02 104.68 88.02 104.68 91.35 108.74 91.35 108.74 92.66 103.37 92.66 103.37 82.97"/><path class="cls-3" d="M546.06,423.3l4.57,10.06h-1.39l-1.12-2.48H544l-1.11,2.48h-1.38Zm0,3-1.55,3.46h3.12Z" transform="translate(-432.15 -340.71)"/><polygon class="cls-3" points="119.89 82.97 121.2 82.97 121.2 91.35 124.36 91.35 124.36 92.66 119.89 92.66 119.89 82.97"/><polygon class="cls-3" points="129.88 82.97 135.25 82.97 135.25 84.29 131.19 84.29 131.19 86.71 135.25 86.71 135.25 88.02 131.19 88.02 131.19 91.35 135.25 91.35 135.25 92.66 129.88 92.66 129.88 82.97"/><path class="cls-3" d="M574.87,424.75l-1.07.86A4.23,4.23,0,0,0,573,425a1.89,1.89,0,0,0-1-.22,1.91,1.91,0,0,0-1.16.32,1,1,0,0,0-.44.83,1,1,0,0,0,.39.78,5.37,5.37,0,0,0,1.32.74,9.47,9.47,0,0,1,1.45.75,3.71,3.71,0,0,1,.85.76,3,3,0,0,1,.5.88,2.91,2.91,0,0,1,.16,1,2.76,2.76,0,0,1-.88,2.06,2.94,2.94,0,0,1-2.12.85A3.6,3.6,0,0,1,570,433a4.18,4.18,0,0,1-1.43-2l1.32-.37a2.35,2.35,0,0,0,2.21,1.63,1.73,1.73,0,0,0,1.2-.43,1.41,1.41,0,0,0,.48-1.09,1.48,1.48,0,0,0-.25-.79,2.22,2.22,0,0,0-.62-.66,6.67,6.67,0,0,0-1.19-.59,8.29,8.29,0,0,1-1.25-.61,3.21,3.21,0,0,1-.76-.66,2.8,2.8,0,0,1-.47-.76,2.21,2.21,0,0,1-.15-.81,2.27,2.27,0,0,1,.84-1.77,3,3,0,0,1,2-.73,4.12,4.12,0,0,1,1.6.34,3.3,3.3,0,0,1,1.35,1" transform="translate(-432.15 -340.71)"/><polygon class="cls-3" points="144 82.97 149.93 82.97 149.93 84.29 147.62 84.29 147.62 92.66 146.31 92.66 146.31 84.29 144 84.29 144 82.97"/><path class="cls-3" d="M586.87,423.3l4.57,10.06h-1.39l-1.12-2.48h-4.11l-1.11,2.48h-1.38Zm0,3-1.55,3.46h3.11Z" transform="translate(-432.15 -340.71)"/><polygon class="cls-3" points="159.14 82.97 165.06 82.97 165.06 84.29 162.75 84.29 162.75 92.66 161.45 92.66 161.45 84.29 159.14 84.29 159.14 82.97"/><polygon class="cls-3" points="166.45 82.97 171.82 82.97 171.82 84.29 167.76 84.29 167.76 86.71 171.82 86.71 171.82 88.02 167.76 88.02 167.76 91.35 171.82 91.35 171.82 92.66 166.45 92.66 166.45 82.97"/><path class="cls-3" d="M617.65,424v1.5a6.62,6.62,0,0,0-2.88-.77,4,4,0,0,0-2.84,1.09,3.68,3.68,0,0,0,0,5.38,4.22,4.22,0,0,0,3,1.08,5.61,5.61,0,0,0,2.74-.81V433a6,6,0,0,1-2.85.7,5.37,5.37,0,0,1-3.85-1.52,4.89,4.89,0,0,1-1.6-3.67,4.83,4.83,0,0,1,1.57-3.62,5.27,5.27,0,0,1,3.78-1.51,7.58,7.58,0,0,1,2.94.64" transform="translate(-432.15 -340.71)"/><path class="cls-3" d="M618.82,428.46a4.77,4.77,0,0,1,1.58-3.59,5.33,5.33,0,0,1,3.8-1.5,5.2,5.2,0,0,1,3.73,1.51,4.81,4.81,0,0,1,1.57,3.58,5,5,0,0,1-1.55,3.71,5.48,5.48,0,0,1-7.58,0,5,5,0,0,1-1.56-3.7m9.28.06a3.58,3.58,0,0,0-1.16-2.7,4,4,0,0,0-2.84-1.1,3.8,3.8,0,0,0-2.75,1.12,3.61,3.61,0,0,0-1.14,2.68,3.54,3.54,0,0,0,1.17,2.69,4.06,4.06,0,0,0,2.88,1.1,3.72,3.72,0,0,0,2.7-1.12,3.61,3.61,0,0,0,1.14-2.66" transform="translate(-432.15 -340.71)"/><polygon class="cls-3" points="207.08 82.56 209.73 92.66 208.43 92.66 206.83 86.49 204.07 93.03 201.3 86.44 199.67 92.66 198.38 92.66 201.03 82.56 204.07 89.78 207.08 82.56"/><path class="cls-3" d="M643.55,423.67h1.95a4.25,4.25,0,0,1,2.66.78,2.42,2.42,0,0,1,1,2,2.57,2.57,0,0,1-1.07,2.09,5.09,5.09,0,0,1-3.24.82v4h-1.31Zm1.31,1.16v3.39a4.72,4.72,0,0,0,2.21-.42,1.39,1.39,0,0,0,.72-1.3,1.53,1.53,0,0,0-.54-1.17,3.83,3.83,0,0,0-2.38-.5" transform="translate(-432.15 -340.71)"/><path class="cls-3" d="M653.39,423.3,658,433.36h-1.39l-1.12-2.48h-4.11l-1.11,2.48h-1.38Zm0,3-1.55,3.46H655Z" transform="translate(-432.15 -340.71)"/><polygon class="cls-3" points="226.96 82.58 234.12 89.94 234.12 82.97 235.44 82.97 235.44 93.1 228.28 85.77 228.28 92.66 226.96 92.66 226.96 82.58"/><polygon class="cls-3" points="236.84 82.97 238.31 82.97 240.69 86.87 243.04 82.97 244.51 82.97 241.33 88.22 241.33 92.66 240 92.66 240 88.23 236.84 82.97"/><rect class="cls-3" x="250.29" y="82.97" width="1.31" height="9.69"/><polygon class="cls-3" points="253.65 82.58 260.81 89.94 260.81 82.97 262.13 82.97 262.13 93.1 254.97 85.77 254.97 92.66 253.65 92.66 253.65 82.58"/><path class="cls-3" d="M706.47,424.75l-1.07.86a4.16,4.16,0,0,0-.77-.66,1.89,1.89,0,0,0-1-.22,1.92,1.92,0,0,0-1.16.32,1,1,0,0,0-.44.83,1,1,0,0,0,.39.78,5.35,5.35,0,0,0,1.32.74,9.54,9.54,0,0,1,1.45.75,3.75,3.75,0,0,1,.85.76,3,3,0,0,1,.5.88,2.93,2.93,0,0,1,.16,1,2.77,2.77,0,0,1-.88,2.06,3,3,0,0,1-2.13.85,3.6,3.6,0,0,1-2.15-.67,4.18,4.18,0,0,1-1.43-2l1.32-.37a2.35,2.35,0,0,0,2.21,1.63,1.73,1.73,0,0,0,1.2-.43,1.41,1.41,0,0,0,.48-1.09,1.47,1.47,0,0,0-.25-.79,2.21,2.21,0,0,0-.62-.66,6.64,6.64,0,0,0-1.19-.59,8.46,8.46,0,0,1-1.25-.61,3.22,3.22,0,0,1-.76-.66,2.8,2.8,0,0,1-.47-.76,2.23,2.23,0,0,1-.15-.81,2.27,2.27,0,0,1,.84-1.77,3,3,0,0,1,2-.73,4.11,4.11,0,0,1,1.6.34,3.3,3.3,0,0,1,1.35,1" transform="translate(-432.15 -340.71)"/><path class="cls-3" d="M708.55,423.67h2.1a4,4,0,0,1,2.55.78,2.44,2.44,0,0,1,1,2,2.57,2.57,0,0,1-.64,1.72,3.56,3.56,0,0,1-2,1l2.81,4.15h-1.52l-2.69-4h-.3v4h-1.32Zm1.32,1.17v3.38q2.93.06,2.93-1.69a1.48,1.48,0,0,0-.34-1,1.72,1.72,0,0,0-.91-.53,7.44,7.44,0,0,0-1.67-.14" transform="translate(-432.15 -340.71)"/><rect class="cls-3" x="283.95" y="82.97" width="1.31" height="9.69"/><polygon class="cls-3" points="291.88 82.97 293.19 82.97 293.19 91.35 296.34 91.35 296.34 92.66 291.88 92.66 291.88 82.97"/><path class="cls-3" d="M733.44,423.3,738,433.36h-1.39l-1.12-2.48h-4.11l-1.11,2.48h-1.38Zm0,3-1.55,3.46H735Z" transform="translate(-432.15 -340.71)"/><polygon class="cls-3" points="307.01 82.58 314.17 89.94 314.17 82.97 315.49 82.97 315.49 93.1 308.33 85.77 308.33 92.66 307.01 92.66 307.01 82.58"/><polygon class="cls-3" points="317.47 82.97 318.79 82.97 318.79 86.9 322.9 82.97 324.75 82.97 320.07 87.46 324.78 92.66 323.09 92.66 318.79 87.93 318.79 92.66 317.47 92.66 317.47 82.97"/><path class="cls-3" d="M761.83,423.3l4.57,10.06H765l-1.12-2.48h-4.11l-1.11,2.48h-1.38Zm0,3-1.55,3.46h3.12Z" transform="translate(-432.15 -340.71)"/><polygon class="cls-4" points="230.39 53.91 230.39 61.52 239.09 61.52 239.09 53.91 241.78 53.91 241.78 72.11 239.09 72.11 239.09 63.85 230.39 63.85 230.39 72.11 227.7 72.11 227.7 53.91 230.39 53.91"/><path class="cls-4" d="M697,403.75a12.84,12.84,0,0,1-.55,3.85,8.69,8.69,0,0,1-1.6,3,7.27,7.27,0,0,1-2.6,2,9.18,9.18,0,0,1-7.06,0,7.29,7.29,0,0,1-2.59-2,8.66,8.66,0,0,1-1.6-3,13.79,13.79,0,0,1,0-7.7,8.67,8.67,0,0,1,1.6-3,7.3,7.3,0,0,1,2.59-2,9.18,9.18,0,0,1,7.06,0,7.28,7.28,0,0,1,2.6,2,8.7,8.7,0,0,1,1.6,3,12.88,12.88,0,0,1,.55,3.86m-2.71,0a10,10,0,0,0-.43-3,6.81,6.81,0,0,0-1.18-2.26,5.19,5.19,0,0,0-1.77-1.42,5.14,5.14,0,0,0-4.39,0,5.11,5.11,0,0,0-1.77,1.42,6.9,6.9,0,0,0-1.17,2.26,10.94,10.94,0,0,0,0,6.06,7,7,0,0,0,1.17,2.27,5.08,5.08,0,0,0,1.77,1.42,5.15,5.15,0,0,0,4.39,0,5.15,5.15,0,0,0,1.77-1.42,6.92,6.92,0,0,0,1.18-2.27,9.89,9.89,0,0,0,.43-3" transform="translate(-432.15 -340.71)"/><polygon class="cls-4" points="274.09 53.91 274.09 69.74 282.91 69.74 282.91 72.11 271.4 72.11 271.4 53.91 274.09 53.91"/><path class="cls-4" d="M721.46,394.62h6.92a7.46,7.46,0,0,1,3.31.72,7.62,7.62,0,0,1,2.51,2,8.75,8.75,0,0,1,1.6,2.88,11,11,0,0,1,.55,3.52,10.73,10.73,0,0,1-.59,3.6,9.09,9.09,0,0,1-1.64,2.9,7.55,7.55,0,0,1-2.52,1.93,7.4,7.4,0,0,1-3.22.7h-6.92Zm2.66,15.82h3.5A6.16,6.16,0,0,0,730,410a5.4,5.4,0,0,0,1.9-1.32,6.06,6.06,0,0,0,1.25-2.11,8.36,8.36,0,0,0,.45-2.84,8.9,8.9,0,0,0-.46-3,5.8,5.8,0,0,0-1.25-2.09,5,5,0,0,0-1.9-1.23,7,7,0,0,0-2.39-.4h-3.5Z" transform="translate(-432.15 -340.71)"/><rect class="cls-4" x="311.55" y="53.91" width="2.69" height="18.2"/><polygon class="cls-4" points="324.58 53.91 332.84 67.71 332.84 53.91 335.54 53.91 335.54 72.11 332.36 72.11 324.11 58.21 324.11 72.11 321.42 72.11 321.42 53.91 324.58 53.91"/><path class="cls-4" d="M776.91,403.69a9.69,9.69,0,0,0,.45,3.07,7,7,0,0,0,1.22,2.28,5.27,5.27,0,0,0,1.79,1.42,4.9,4.9,0,0,0,2.16.49,3.88,3.88,0,0,0,1.84-.48,6.16,6.16,0,0,0,1.63-1.27,7.49,7.49,0,0,0,1.23-1.81,6.77,6.77,0,0,0,.64-2.1h-5.41V403h8v9.86h-1.88L788.3,410a5.72,5.72,0,0,1-1.18,1.47,7,7,0,0,1-3.06,1.6,6.74,6.74,0,0,1-1.5.18,8,8,0,0,1-3.47-.73,7.64,7.64,0,0,1-2.64-2,9.27,9.27,0,0,1-1.67-3,11.82,11.82,0,0,1-.58-3.78,11.27,11.27,0,0,1,.25-2.36,10.69,10.69,0,0,1,.73-2.24,10,10,0,0,1,1.19-2,8.19,8.19,0,0,1,1.62-1.59,7.4,7.4,0,0,1,2-1.05,7.52,7.52,0,0,1,2.41-.38,8.73,8.73,0,0,1,2.94.46,7.19,7.19,0,0,1,2.28,1.3,7.68,7.68,0,0,1,1.64,2,10.65,10.65,0,0,1,1.05,2.49h-2.81a6.08,6.08,0,0,0-1.94-2.93,5.07,5.07,0,0,0-3.18-1,4.43,4.43,0,0,0-2.24.58,5.7,5.7,0,0,0-1.75,1.57,7.6,7.6,0,0,0-1.14,2.31,9.42,9.42,0,0,0-.4,2.78" transform="translate(-432.15 -340.71)"/><rect class="cls-3" x="224.17" y="32.33" width="3.92" height="3.6"/><rect class="cls-3" x="224.17" y="39.52" width="3.92" height="3.6"/><rect class="cls-3" x="231" y="32.33" width="3.92" height="3.6"/><rect class="cls-3" x="231" y="39.52" width="3.92" height="3.6"/><path class="cls-3" d="M765.42,355.94a10.26,10.26,0,0,1,3.5-8.21,13.47,13.47,0,0,1,9.11-3,15,15,0,0,1,12.61,6l-7,6.59q-2.83-3.4-5.92-3.4a3.34,3.34,0,0,0-2,.54,1.75,1.75,0,0,0-.77,1.52,1.87,1.87,0,0,0,.41,1.16,4.73,4.73,0,0,0,1.39,1.11q1,.57,1.88,1t2.57,1.23q1.67.77,2.8,1.39,7.61,3.91,7.61,10.6a10.6,10.6,0,0,1-3.58,8.26q-3.58,3.22-9.8,3.22-9.16,0-14.3-6.64l7-6.69a9.84,9.84,0,0,0,3.24,2.88,8.26,8.26,0,0,0,4.17,1.18,4.41,4.41,0,0,0,2.67-.72,2.21,2.21,0,0,0,1-1.85,2.34,2.34,0,0,0-.46-1.34A5.3,5.3,0,0,0,780,369.4q-1.13-.69-1.9-1.08t-2.57-1.21q-1.8-.82-2.42-1.13-7.72-3.71-7.72-10" transform="translate(-432.15 -340.71)"/><polygon class="cls-3" points="94.86 43.32 85.2 43.32 85.2 4.39 85.72 4.39 106.12 21.99 126.52 4.39 127.03 4.39 127.03 43.32 117.38 43.32 117.38 24.48 106.38 33.72 105.86 33.72 94.86 24.48 94.86 43.32"/><polygon class="cls-3" points="158.54 34.18 158.54 43.32 134.09 43.32 134.09 5.01 158.54 5.01 158.54 14.15 143.75 14.15 143.75 20.74 155.94 20.74 155.94 29.25 143.75 29.25 143.75 34.18 158.54 34.18"/><polygon class="cls-3" points="203.84 33.77 203.84 43.32 179.4 43.32 179.4 5.01 189.05 5.01 189.05 33.77 203.84 33.77"/><polygon class="cls-3" points="263.94 43.32 254.29 43.32 254.29 4.39 254.81 4.39 279.93 24.74 279.93 5.01 289.58 5.01 289.58 43.94 289.06 43.94 263.94 23.28 263.94 43.32"/><path class="cls-3" d="M741.61,384H728.79v-38.3h14.79q8.3,0,13.6,4.88T762.47,364q0,9.65-5.74,14.82T741.61,384m.94-28.75h-4.1v19.2h2.39a21.38,21.38,0,0,0,4.44-.41,12.69,12.69,0,0,0,3.74-1.45,6.76,6.76,0,0,0,2.75-3.11,12.21,12.21,0,0,0,1-5.14q0-9.08-10.17-9.08" transform="translate(-432.15 -340.71)"/><path class="cls-4" d="M507,350.83q-5.42-5.73-14.25-5.73t-14.38,5.76a19.16,19.16,0,0,0-5.13,9.73h-41v23.15h10.46V370.1h11.48v13.75h10.46V370.1h8.82a19.07,19.07,0,0,0,4.86,8.84q5.45,5.71,14.27,5.71t14.35-5.71a19.37,19.37,0,0,0,5.53-14A19.74,19.74,0,0,0,507,350.83m-7.29,21.36A10,10,0,0,1,482.53,365a10.06,10.06,0,0,1,2.88-7.47,10.38,10.38,0,0,1,14.3,0,10,10,0,0,1,2.91,7.47,9.71,9.71,0,0,1-3,7.21" transform="translate(-432.15 -340.71)"/><rect class="cls-3" x="0.01" width="10.75" height="16.59"/><rect class="cls-3" x="21.72" width="10.8" height="16.59"/><polygon class="cls-5" points="214.61 27.18 229.7 12.19 244.6 27.38 233.75 3.71 225.56 3.81 214.61 27.18"/><polygon class="cls-3" points="213.03 32.51 229.9 22.15 246.77 32.91 229.7 18.01 213.03 32.51"/><polygon class="cls-5" points="210.56 36.65 221.31 31.13 215.85 43.3 207.68 43.3 210.56 36.65"/><polygon class="cls-5" points="238.48 30.93 243.39 43.3 251.41 43.26 248.74 36.75 238.48 30.93"/><rect class="cls-3" y="86.25" width="21.13" height="0.94"/><rect class="cls-3" x="338.08" y="87.41" width="21.47" height="0.94"/></g></svg>